<?xml version="1.0" encoding="utf-8"?>
<!-- Generator: Adobe Illustrator 16.0.0, SVG Export Plug-In . SVG Version: 6.00 Build 0)  -->
<!DOCTYPE svg PUBLIC "-//W3C//DTD SVG 1.1//EN" "http://www.w3.org/Graphics/SVG/1.1/DTD/svg11.dtd">
<svg version="1.1" id="Calque_3" xmlns="http://www.w3.org/2000/svg" xmlns:xlink="http://www.w3.org/1999/xlink" x="0px" y="0px"
	 width="1210.438px" height="397.48px" viewBox="0 0 1210.438 397.48" enable-background="new 0 0 1210.438 397.48"
	 xml:space="preserve">
<rect id="_x31_" x="75.387" y="1" fill="#1F271B" width="69.333" height="397.48"/>
<rect id="_x32_" x="144.761" y="1" fill="#1F271B" width="61.21" height="397.48"/>
<rect id="_x33_" x="205.971" y="1" fill="#1F271B" width="63" height="397.48"/>
<rect id="_x34_" x="268.971" y="1" fill="#1F271B" width="57.75" height="397.48"/>
<rect id="_x35_" x="326.721" y="1" fill="#1F271B" width="58.75" height="397.48"/>
<rect id="_x36_" x="385.471" y="1" fill="#1F271B" width="61.5" height="397.48"/>
<rect id="_x37_" x="446.971" y="1" fill="#1F271B" width="74.25" height="397.48"/>
<rect id="_x38_" x="521.221" y="1" fill="#1F271B" width="59.75" height="397.48"/>
<rect id="_x39_" x="580.971" y="1" fill="#1F271B" width="58.084" height="397.48"/>
<rect id="_x31_0" x="639.055" y="1" fill="#1F271B" width="58.916" height="397.48"/>
<rect id="_x31_1" x="698.219" y="1" fill="#1F271B" width="61.002" height="397.48"/>
<rect id="_x31_2" x="759.221" y="1" fill="#1F271B" width="65.5" height="397.48"/>
<rect id="_x31_3" x="824.721" y="1" fill="#1F271B" width="28" height="397.48"/>
<rect id="_x31_4" x="852.721" y="1" fill="#1F271B" width="89" height="397.48"/>
<rect id="_x31_5" x="941.721" y="1" fill="#1F271B" width="66.5" height="397.48"/>
<rect id="_x31_6" x="1008.221" y="1" fill="#1F271B" width="60.75" height="397.48"/>
<rect id="_x31_7" x="1068.971" y="1" fill="#1F271B" width="65.928" height="397.48"/>
</svg>
