<?xml version="1.0" encoding="utf-8"?>
<!-- Generator: Adobe Illustrator 16.0.0, SVG Export Plug-In . SVG Version: 6.00 Build 0)  -->
<!DOCTYPE svg PUBLIC "-//W3C//DTD SVG 1.1//EN" "http://www.w3.org/Graphics/SVG/1.1/DTD/svg11.dtd">
<svg version="1.1" id="Calque_1" xmlns="http://www.w3.org/2000/svg" xmlns:xlink="http://www.w3.org/1999/xlink" x="0px" y="0px"
	 width="1210.441px" height="397.48px" viewBox="0 -460.917 1210.441 397.48" enable-background="new 0 -460.917 1210.441 397.48"
	 xml:space="preserve">
<g id="Titre_Anthony_Fouda-Many_1_">
	<path fill="#01F271" d="M971.044-261.639c-0.26-5.797-0.521-9.525-0.912-9.525s-0.65,2.898-0.912,9.525l-1.693,39.345
		c-0.131,2.069,0.13,4.141,0.781,4.141c4.172,0,4.563,0,4.433-3.729L971.044-261.639z"/>
	<path fill="#01F271" d="M787.61-261.639c-0.261-5.797-0.521-9.525-0.912-9.525c-0.392,0-0.651,2.898-0.912,9.525l-1.694,39.345
		c-0.131,2.069,0.13,4.141,0.781,4.141c4.172,0,4.563,0,4.434-3.729L787.61-261.639z"/>
	<path fill="#01F271" d="M351.516-333.286c-1.434,0-2.086,5.384-2.086,11.183v120.101c0,6.213,0.652,10.769,2.086,10.769
		c1.435,0,2.086-4.555,2.086-10.769v-120.101C353.602-327.487,352.95-333.286,351.516-333.286z"/>
	<path fill="#01F271" d="M724.249-336.599c-0.521,0-0.781,1.244-0.781,3.728v137.496c0,2.485,0.262,3.313,0.781,3.313
		c0.783,0,3.391,0,3.391-12.01v-120.515c0-4.141-0.392-7.454-1.174-9.525C725.945-335.355,724.9-336.599,724.249-336.599z"/>
	<path fill="#01F271" d="M0-461v397.48h1210.441V-461H0z M136.531-107.163h-21.12c-0.782,0-1.564-1.657-1.694-4.143l-2.608-62.121
		c-0.13-2.071-0.651-3.313-1.304-3.313h-7.04c-0.521,0-1.043,1.656-1.173,4.142l-2.477,60.879c-0.13,2.898-1.043,4.555-1.695,4.555
		H75.909c-1.173,0-1.825-2.899-1.564-7.042L91.814-412.8c0.13-2.07,0.782-4.969,1.564-4.969H118.8c0.913,0,1.564,2.484,1.694,5.383
		l17.861,296.112C138.617-111.718,137.964-107.163,136.531-107.163z M198.717-112.547c0,2.9-0.521,5.384-1.434,5.384h-24.378
		c-0.521,0-1.304-1.657-1.434-4.143l-5.736-74.543c-0.261-4.142-0.783-5.799-1.173-5.799c-0.391,0-0.652,1.657-0.652,5.799v73.302
		c0,2.9-0.782,5.384-1.695,5.384h-19.816c-0.782,0-1.304-2.484-1.304-5.798v-299.425c0-2.899,0.652-5.383,1.434-5.383h22.033
		c0.912,0,1.564,1.655,1.825,4.969l7.823,93.182c0.26,3.313,0.651,4.969,0.913,4.969c0.391,0,0.782-1.656,0.782-5.384v-92.353
		c0-2.899,0.652-5.383,1.564-5.383h19.556c1.043,0,1.694,2.898,1.694,5.798v299.424H198.717z M261.949-339.912
		c0,3.313-0.783,5.799-1.826,5.799h-13.037c-0.913,0-1.564,2.071-1.564,5.799v215.767c0,2.9-0.782,5.384-1.825,5.384h-22.163
		c-0.912,0-1.825-2.484-1.825-5.798v-216.182c0-2.899-0.782-4.97-1.695-4.97h-13.037c-0.782,0-1.695-3.313-1.695-5.799v-73.717
		c0-2.485,0.391-4.141,1.173-4.141h55.798c0.912,0,1.695,1.655,1.695,4.969L261.949-339.912L261.949-339.912z M319.965-111.718
		c0,2.071-0.392,4.555-1.043,4.555h-22.163c-0.652,0-1.173-2.484-1.173-4.555V-219.81c0-1.656-0.261-3.313-0.782-3.313h-2.999
		c-0.652,0-0.913,1.657-0.913,3.313v108.504c0,2.071-0.521,4.143-1.173,4.143h-21.511c-0.913,0-1.695-2.899-1.695-6.212v-300.253
		c0-2.485,0.521-4.141,1.304-4.141h21.902c0.782,0,1.173,1.243,1.173,3.313v108.505c0,1.657,0.391,2.898,0.913,2.898h2.607
		c0.652,0,1.174-1.656,1.174-2.898v-108.092c0-2.071,0.391-3.726,1.043-3.726h22.032c0.782,0,1.304,1.655,1.304,3.726V-111.718z
		 M378.632-200.76c0,63.778-12.776,94.839-27.117,94.839c-14.34,0-27.117-30.646-27.117-94.839v-122.586
		c0-64.192,12.646-95.252,27.117-95.252c14.472,0,27.117,31.06,27.117,95.252V-200.76z M440.688-112.547
		c0,2.9-0.521,5.384-1.434,5.384h-24.379c-0.521,0-1.304-1.657-1.434-4.143l-5.736-74.543c-0.261-4.142-0.782-5.799-1.173-5.799
		c-0.391,0-0.652,1.657-0.652,5.799v73.302c0,2.9-0.782,5.384-1.695,5.384H384.37c-0.782,0-1.303-2.484-1.303-5.798v-299.425
		c0-2.899,0.652-5.383,1.434-5.383h22.032c0.913,0,1.564,1.655,1.825,4.969l7.823,93.182c0.26,3.313,0.651,4.969,0.912,4.969
		c0.391,0,0.782-1.656,0.782-5.384v-92.353c0-2.899,0.652-5.383,1.564-5.383h19.556c1.043,0,1.693,2.898,1.693,5.798V-112.547z
		 M508.092-412.8l-17.078,174.354c-0.521,5.799-1.173,17.396-1.173,21.95v103.949c-0.131,2.9-0.783,5.384-1.826,5.384h-25.422
		c-0.781,0-1.434-2.899-1.563-4.97v-105.193c0-6.212-0.261-11.182-1.173-20.292l-16.558-176.838c-0.13-1.243,0.13-3.313,0.782-3.313
		h23.727c0.652,0,1.174,1.243,1.435,4.141l6.258,85.727c0.13,2.071,0.521,3.313,0.652,3.313c0.261,0,0.651-1.243,0.651-3.313
		l5.997-84.483c0.261-2.899,0.782-5.383,1.564-5.383h22.685C507.831-417.769,508.353-415.285,508.092-412.8z M573.798-341.154
		c0,2.901-0.782,5.384-1.693,5.384h-21.119c-0.783,0-1.435,1.657-1.435,4.555v24.849c0,2.071,0.391,3.728,1.303,3.728h9.909
		c0.652,0,1.434,2.071,1.434,4.142v74.959c0,2.486-0.651,4.557-1.564,4.557h-9.778c-0.65,0-1.303,2.899-1.303,5.383v100.637
		c0,3.726-0.651,5.798-1.696,5.798h-22.684c-0.652,0-1.435-2.484-1.435-5.384V-411.97c0-2.899,0.651-5.798,1.564-5.798h46.933
		c0.913,0,1.564,2.07,1.564,4.555V-341.154L573.798-341.154z M631.946-200.76c0,63.778-12.776,94.839-27.117,94.839
		s-27.117-30.646-27.117-94.839v-122.586c0-64.192,12.646-95.252,27.117-95.252s27.117,31.06,27.117,95.252V-200.76z
		 M690.613-191.648c0,43.898-9.909,84.485-27.117,84.485c-17.34,0-27.117-41-27.117-84.485v-221.565c0-2.9,0.521-4.555,1.305-4.555
		h22.162c0.782,0,1.435,1.655,1.435,4.555v210.384c0,5.382,0.651,9.11,2.217,9.11c1.564,0,2.217-3.728,2.217-8.696v-211.213
		c0-2.071,0.651-4.141,1.434-4.141h22.033c0.651,0,1.435,1.243,1.435,4.141v221.98H690.613z M753.843-223.538
		c0,67.092-11.863,116.375-32.069,116.375h-24.381c-1.043,0-1.563-2.072-1.563-4.97v-299.424c0-3.314,0.651-6.212,1.694-6.212
		h23.336c20.729,0,32.982,41.828,32.982,117.202V-223.538z M816.813-107.163h-21.119c-0.783,0-1.565-1.657-1.695-4.143
		l-2.607-62.121c-0.13-2.071-0.651-3.313-1.304-3.313h-7.039c-0.521,0-1.043,1.656-1.174,4.142l-2.479,60.879
		c-0.13,2.898-1.043,4.555-1.693,4.555H756.19c-1.172,0-1.823-2.899-1.563-7.042L772.096-412.8c0.131-2.07,0.782-4.969,1.565-4.969
		h25.421c0.913,0,1.565,2.484,1.695,5.383l17.86,296.112C818.899-111.718,818.248-107.163,816.813-107.163z M845.626-234.305
		h-28.942v-50.938h28.942V-234.305z M935.451-111.306c0,2.485-0.651,4.143-1.435,4.143h-23.598c-0.781,0-1.433-1.657-1.433-4.555
		v-129.627c0-3.313-0.132-4.555-0.393-4.555c-0.262,0-0.521,1.657-0.913,8.283l-6.777,127.141c-0.131,2.484-0.783,3.313-1.436,3.313
		h-14.73c-0.651,0-1.175-1.657-1.436-4.555l-5.997-118.446c-0.392-7.04-0.912-8.282-1.304-8.282c-0.391,0-0.651,2.071-0.651,5.384
		v121.344c0,2.897-0.392,4.555-1.304,4.555h-22.163c-0.521,0-1.042-2.072-1.042-3.728v-302.737c0-2.071,0.39-4.141,1.042-4.141
		h34.938c0.651,0,1.174,1.655,1.305,4.141l3.911,82.414c0.13,2.901,0.391,4.143,0.65,4.143c0.261,0,0.521-1.657,0.521-4.556
		l3.129-81.586c0.131-2.485,0.651-4.555,1.435-4.555h36.242c0.913,0,1.435,1.655,1.435,4.555v301.907H935.451z M1000.248-107.163
		h-21.119c-0.783,0-1.565-1.657-1.695-4.143l-2.606-62.121c-0.13-2.071-0.652-3.313-1.305-3.313h-7.039
		c-0.521,0-1.043,1.656-1.174,4.142l-2.478,60.879c-0.131,2.898-1.043,4.555-1.694,4.555h-21.512c-1.172,0-1.825-2.899-1.563-7.042
		L955.531-412.8c0.131-2.07,0.782-4.969,1.564-4.969h25.421c0.912,0,1.565,2.484,1.695,5.383l17.861,296.112
		C1002.333-111.718,1001.682-107.163,1000.248-107.163z M1062.435-112.547c0,2.9-0.521,5.384-1.434,5.384h-24.379
		c-0.521,0-1.305-1.657-1.436-4.143l-5.734-74.543c-0.262-4.142-0.782-5.799-1.174-5.799c-0.393,0-0.651,1.657-0.651,5.799v73.302
		c0,2.9-0.783,5.384-1.694,5.384h-19.816c-0.782,0-1.303-2.484-1.303-5.798v-299.425c0-2.899,0.65-5.383,1.434-5.383h22.032
		c0.912,0,1.563,1.655,1.825,4.969l7.821,93.182c0.262,3.313,0.651,4.969,0.913,4.969c0.391,0,0.781-1.656,0.781-5.384v-92.353
		c0-2.899,0.652-5.383,1.564-5.383h19.556c1.043,0,1.694,2.898,1.694,5.798V-112.547L1062.435-112.547z M1129.839-412.8
		l-17.079,174.354c-0.521,5.799-1.174,17.396-1.174,21.95v103.949c-0.129,2.9-0.782,5.384-1.825,5.384h-25.421
		c-0.782,0-1.435-2.899-1.564-4.97v-105.193c0-6.212-0.261-11.182-1.173-20.292l-16.558-176.838
		c-0.131-1.243,0.13-3.313,0.782-3.313h23.727c0.652,0,1.175,1.243,1.436,4.141l6.258,85.727c0.13,2.071,0.521,3.313,0.651,3.313
		c0.261,0,0.651-1.243,0.651-3.313l5.996-84.483c0.263-2.899,0.782-5.383,1.565-5.383h22.685
		C1129.578-417.769,1130.1-415.285,1129.839-412.8z"/>
	<path fill="#01F271" d="M107.328-261.639c-0.261-5.797-0.521-9.525-0.913-9.525s-0.652,2.898-0.913,9.525l-1.695,39.345
		c-0.13,2.069,0.13,4.141,0.782,4.141c4.172,0,4.563,0,4.433-3.729L107.328-261.639z"/>
	<path fill="#01F271" d="M604.829-333.286c-1.435,0-2.086,5.384-2.086,11.183v120.101c0,6.213,0.651,10.769,2.086,10.769
		c1.433,0,2.086-4.555,2.086-10.769v-120.101C606.916-327.487,606.262-333.286,604.829-333.286z"/>
</g>
<g id="Calque_5" display="none">
	<g id="poplar_standar_1_" display="inline">
		<path fill="#FFFFFF" d="M118.8-417.769c0.913,0,1.564,2.484,1.694,5.383l17.861,296.112c0.261,4.555-0.391,9.11-1.825,9.11h-21.12
			c-0.782,0-1.564-1.657-1.694-4.143l-2.608-62.121c-0.13-2.071-0.651-3.313-1.304-3.313h-7.04c-0.521,0-1.043,1.656-1.173,4.142
			l-2.477,60.879c-0.13,2.898-1.043,4.555-1.695,4.555h-21.51c-1.173,0-1.825-2.899-1.564-7.042L91.814-412.8
			c0.13-2.07,0.782-4.969,1.564-4.969H118.8z M107.328-261.639c-0.261-5.797-0.521-9.525-0.913-9.525s-0.652,2.898-0.913,9.525
			l-1.695,39.345c-0.13,2.069,0.13,4.141,0.782,4.141c4.172,0,4.563,0,4.433-3.729L107.328-261.639z"/>
		<path fill="#FFFFFF" d="M141.094-412.386c0-2.899,0.652-5.383,1.434-5.383h22.033c0.912,0,1.564,1.655,1.825,4.969l7.823,93.182
			c0.26,3.313,0.651,4.969,0.913,4.969c0.391,0,0.782-1.656,0.782-5.384v-92.353c0-2.899,0.652-5.383,1.564-5.383h19.556
			c1.043,0,1.694,2.898,1.694,5.798v299.424c0,2.9-0.521,5.384-1.434,5.384h-24.378c-0.521,0-1.304-1.657-1.434-4.143l-5.736-74.543
			c-0.261-4.142-0.783-5.799-1.173-5.799c-0.391,0-0.652,1.657-0.652,5.799v73.302c0,2.9-0.782,5.384-1.695,5.384H142.4
			c-0.782,0-1.304-2.484-1.304-5.798v-299.425H141.094z"/>
		<path fill="#FFFFFF" d="M221.534-107.163c-0.912,0-1.825-2.484-1.825-5.798v-216.182c0-2.899-0.782-4.97-1.695-4.97h-13.037
			c-0.782,0-1.695-3.313-1.695-5.799v-73.717c0-2.485,0.391-4.141,1.173-4.141h55.798c0.912,0,1.695,1.655,1.695,4.969v72.889
			c0,3.313-0.783,5.799-1.826,5.799h-13.037c-0.913,0-1.564,2.071-1.564,5.799v215.767c0,2.9-0.782,5.384-1.825,5.384H221.534z"/>
		<path fill="#FFFFFF" d="M266.514-413.628c0-2.485,0.521-4.141,1.304-4.141h21.902c0.782,0,1.173,1.243,1.173,3.313v108.505
			c0,1.657,0.391,2.898,0.913,2.898h2.607c0.652,0,1.174-1.656,1.174-2.898v-108.092c0-2.071,0.391-3.726,1.043-3.726h22.032
			c0.782,0,1.304,1.655,1.304,3.726v302.325c0,2.071-0.392,4.555-1.043,4.555H296.76c-0.652,0-1.173-2.484-1.173-4.555V-219.81
			c0-1.656-0.261-3.313-0.782-3.313h-2.999c-0.652,0-0.913,1.657-0.913,3.313v108.504c0,2.071-0.521,4.143-1.173,4.143h-21.511
			c-0.913,0-1.695-2.899-1.695-6.212V-413.628z"/>
		<path fill="#FFFFFF" d="M324.399-323.346c0-64.192,12.646-95.252,27.117-95.252c14.472,0,27.117,31.06,27.117,95.252v122.586
			c0,63.778-12.776,94.839-27.117,94.839c-14.34,0-27.117-30.646-27.117-94.839V-323.346z M349.43-202.002
			c0,6.213,0.652,10.769,2.086,10.769c1.435,0,2.086-4.555,2.086-10.769v-120.101c0-5.384-0.651-11.183-2.086-11.183
			c-1.434,0-2.086,5.384-2.086,11.183V-202.002z"/>
		<path fill="#FFFFFF" d="M383.066-412.386c0-2.899,0.652-5.383,1.434-5.383h22.032c0.913,0,1.564,1.655,1.825,4.969l7.823,93.182
			c0.26,3.313,0.651,4.969,0.912,4.969c0.391,0,0.782-1.656,0.782-5.384v-92.353c0-2.899,0.652-5.383,1.564-5.383h19.556
			c1.043,0,1.694,2.898,1.694,5.798v299.424c0,2.9-0.521,5.384-1.435,5.384h-24.379c-0.521,0-1.304-1.657-1.434-4.143l-5.736-74.543
			c-0.261-4.142-0.782-5.799-1.173-5.799c-0.391,0-0.652,1.657-0.652,5.799v73.302c0,2.9-0.782,5.384-1.695,5.384h-19.816
			c-0.782,0-1.303-2.484-1.303-5.798V-412.386z"/>
		<path fill="#FFFFFF" d="M443.298-414.456c-0.13-1.243,0.13-3.313,0.782-3.313h23.727c0.652,0,1.173,1.243,1.435,4.141
			l6.258,85.727c0.13,2.071,0.521,3.313,0.652,3.313c0.261,0,0.651-1.243,0.651-3.313l5.997-84.483
			c0.262-2.899,0.782-5.383,1.564-5.383h22.685c0.782,0,1.304,2.484,1.043,4.969l-17.078,174.354
			c-0.521,5.799-1.173,17.396-1.173,21.95v103.949c-0.131,2.9-0.783,5.384-1.826,5.384h-25.422c-0.781,0-1.434-2.899-1.563-4.97
			v-105.193c0-6.212-0.261-11.182-1.173-20.292L443.298-414.456z"/>
		<path fill="#FFFFFF" d="M523.737-411.971c0-2.899,0.651-5.798,1.564-5.798h46.934c0.913,0,1.563,2.07,1.563,4.555v72.06
			c0,2.901-0.782,5.384-1.693,5.384h-21.119c-0.783,0-1.435,1.657-1.435,4.555v24.849c0,2.071,0.391,3.728,1.303,3.728h9.909
			c0.652,0,1.434,2.071,1.434,4.142v74.959c0,2.486-0.651,4.557-1.564,4.557h-9.778c-0.65,0-1.303,2.899-1.303,5.383v100.637
			c0,3.726-0.651,5.798-1.695,5.798h-22.685c-0.652,0-1.435-2.484-1.435-5.384V-411.971L523.737-411.971z"/>
		<path fill="#FFFFFF" d="M577.712-323.346c0-64.192,12.646-95.252,27.117-95.252s27.117,31.06,27.117,95.252v122.586
			c0,63.778-12.776,94.839-27.117,94.839s-27.117-30.646-27.117-94.839V-323.346z M602.743-202.002
			c0,6.213,0.651,10.769,2.086,10.769c1.433,0,2.086-4.555,2.086-10.769v-120.101c0-5.384-0.653-11.183-2.086-11.183
			c-1.435,0-2.086,5.384-2.086,11.183V-202.002z"/>
		<path fill="#FFFFFF" d="M659.845-417.769c0.782,0,1.435,1.655,1.435,4.555v210.384c0,5.382,0.651,9.11,2.217,9.11
			c1.564,0,2.217-3.728,2.217-8.696v-211.213c0-2.071,0.651-4.141,1.435-4.141h22.032c0.651,0,1.435,1.243,1.435,4.141v221.98
			c0,43.898-9.909,84.485-27.117,84.485c-17.34,0-27.117-41-27.117-84.485v-221.565c0-2.9,0.521-4.555,1.305-4.555H659.845z"/>
		<path fill="#FFFFFF" d="M697.393-107.163c-1.043,0-1.563-2.072-1.563-4.97v-299.424c0-3.314,0.651-6.212,1.694-6.212h23.336
			c20.729,0,32.982,41.828,32.982,117.202v77.029c0,67.092-11.863,116.375-32.069,116.375H697.393z M727.639-324.588
			c0-4.141-0.392-7.454-1.174-9.525c-0.521-1.243-1.564-2.486-2.217-2.486c-0.521,0-0.781,1.244-0.781,3.728v137.496
			c0,2.485,0.261,3.313,0.781,3.313c0.783,0,3.391,0,3.391-12.01V-324.588z"/>
		<path fill="#FFFFFF" d="M799.083-417.769c0.913,0,1.565,2.484,1.695,5.383l17.86,296.112c0.261,4.555-0.392,9.11-1.825,9.11
			h-21.119c-0.783,0-1.565-1.657-1.695-4.143l-2.607-62.121c-0.13-2.071-0.651-3.313-1.304-3.313h-7.039
			c-0.521,0-1.043,1.656-1.174,4.142l-2.478,60.879c-0.131,2.898-1.044,4.555-1.694,4.555h-21.512c-1.173,0-1.824-2.899-1.563-7.042
			L772.096-412.8c0.131-2.07,0.782-4.969,1.565-4.969H799.083z M787.61-261.639c-0.261-5.797-0.521-9.525-0.912-9.525
			c-0.392,0-0.651,2.898-0.912,9.525l-1.694,39.345c-0.131,2.069,0.13,4.141,0.781,4.141c4.172,0,4.563,0,4.434-3.729
			L787.61-261.639z"/>
		<path fill="#FFFFFF" d="M845.626-285.244v50.938h-28.942v-50.938H845.626z"/>
		<path fill="#FFFFFF" d="M851.884-107.163c-0.521,0-1.042-2.072-1.042-3.728v-302.737c0-2.071,0.39-4.141,1.042-4.141h34.939
			c0.65,0,1.173,1.655,1.304,4.141l3.911,82.414c0.13,2.901,0.391,4.143,0.65,4.143c0.261,0,0.521-1.657,0.521-4.556l3.129-81.586
			c0.131-2.485,0.651-4.555,1.435-4.555h36.243c0.912,0,1.434,1.655,1.434,4.555v301.908c0,2.485-0.651,4.143-1.434,4.143h-23.599
			c-0.781,0-1.433-1.657-1.433-4.555v-129.627c0-3.313-0.131-4.555-0.393-4.555s-0.521,1.657-0.913,8.283l-6.777,127.141
			c-0.132,2.484-0.783,3.313-1.436,3.313h-14.73c-0.651,0-1.175-1.657-1.436-4.555l-5.997-118.446
			c-0.392-7.04-0.912-8.282-1.304-8.282s-0.651,2.071-0.651,5.384v121.344c0,2.898-0.392,4.555-1.304,4.555L851.884-107.163
			L851.884-107.163z"/>
		<path fill="#FFFFFF" d="M982.517-417.769c0.912,0,1.565,2.484,1.695,5.383l17.861,296.112c0.26,4.555-0.393,9.11-1.826,9.11
			h-21.119c-0.783,0-1.564-1.657-1.695-4.143l-2.606-62.121c-0.13-2.071-0.652-3.313-1.304-3.313h-7.039
			c-0.522,0-1.043,1.656-1.174,4.142l-2.479,60.879c-0.131,2.898-1.043,4.555-1.694,4.555h-21.512c-1.172,0-1.825-2.899-1.563-7.042
			l17.47-298.593c0.131-2.07,0.782-4.969,1.564-4.969H982.517z M971.044-261.639c-0.26-5.797-0.521-9.525-0.912-9.525
			s-0.65,2.898-0.912,9.525l-1.693,39.345c-0.131,2.069,0.13,4.141,0.781,4.141c4.172,0,4.563,0,4.433-3.729L971.044-261.639z"/>
		<path fill="#FFFFFF" d="M1004.813-412.386c0-2.899,0.65-5.383,1.434-5.383h22.032c0.912,0,1.563,1.655,1.825,4.969l7.821,93.182
			c0.261,3.313,0.651,4.969,0.913,4.969c0.391,0,0.781-1.656,0.781-5.384v-92.353c0-2.899,0.652-5.383,1.564-5.383h19.556
			c1.043,0,1.693,2.898,1.693,5.798v299.424c0,2.9-0.521,5.384-1.434,5.384h-24.379c-0.521,0-1.306-1.657-1.436-4.143l-5.734-74.543
			c-0.263-4.142-0.782-5.799-1.174-5.799c-0.393,0-0.651,1.657-0.651,5.799v73.302c0,2.9-0.783,5.384-1.695,5.384h-19.815
			c-0.782,0-1.304-2.484-1.304-5.798v-299.425H1004.813z"/>
		<path fill="#FFFFFF" d="M1065.045-414.456c-0.131-1.243,0.13-3.313,0.782-3.313h23.727c0.652,0,1.174,1.243,1.436,4.141
			l6.258,85.727c0.13,2.071,0.521,3.313,0.651,3.313c0.261,0,0.651-1.243,0.651-3.313l5.996-84.483
			c0.262-2.899,0.782-5.383,1.565-5.383h22.685c0.781,0,1.305,2.484,1.043,4.969l-17.079,174.354
			c-0.521,5.799-1.174,17.396-1.174,21.95v103.949c-0.129,2.9-0.782,5.384-1.825,5.384h-25.421c-0.782,0-1.435-2.899-1.564-4.97
			v-105.193c0-6.212-0.261-11.182-1.173-20.292L1065.045-414.456z"/>
	</g>
</g>
<g id="repère">
</g>
<rect id="_x31_" x="70.387" y="-943.976" fill="#01F271" width="69.333" height="397.48"/>
<rect id="_x32_" x="139.761" y="-943.976" fill="#01F271" width="61.21" height="397.48"/>
<rect id="_x33_" x="200.971" y="-943.976" fill="#01F271" width="63" height="397.48"/>
<rect id="_x34_" x="263.971" y="-943.976" fill="#01F271" width="57.75" height="397.48"/>
<rect id="_x35_" x="321.721" y="-943.976" fill="#01F271" width="58.75" height="397.48"/>
<rect id="_x36_" x="380.471" y="-943.976" fill="#01F271" width="61.5" height="397.48"/>
<rect id="_x37_" x="441.971" y="-943.976" fill="#01F271" width="74.25" height="397.48"/>
<rect id="_x38_" x="516.221" y="-943.976" fill="#01F271" width="59.75" height="397.48"/>
<rect id="_x39_" x="575.971" y="-943.976" fill="#01F271" width="58.084" height="397.48"/>
<rect id="_x31_0" x="634.055" y="-943.976" fill="#01F271" width="58.916" height="397.48"/>
<rect id="_x31_1" x="693.22" y="-943.976" fill="#01F271" width="61.001" height="397.48"/>
<rect id="_x31_2" x="754.221" y="-943.976" fill="#01F271" width="65.5" height="397.48"/>
<rect id="_x31_3" x="819.721" y="-943.976" fill="#01F271" width="28" height="397.48"/>
<rect id="_x31_4" x="847.721" y="-943.976" fill="#01F271" width="89" height="397.48"/>
<rect id="_x31_5" x="936.721" y="-943.976" fill="#01F271" width="66.5" height="397.48"/>
<rect id="_x31_6" x="1003.221" y="-943.976" fill="#01F271" width="60.75" height="397.48"/>
<rect id="_x31_7" x="1063.971" y="-943.976" fill="#01F271" width="65.929" height="397.48"/>
</svg>
